{"title":"The Day The Earth Stood Still *2008* [DVDRip.XviD-miguel] [Lekto","uid":6351363,"size":1374705224,"categoryP":"video","categoryS":"movies","magnet":"?xt=urn:btih:0b19410335500bcf6e83d9fc21d69f844d98cced&amp;dn=The+Day+The+Earth+Stood+Still+%2A2008%2A+%5BDVDRip.XviD-miguel%5D+%5BLekto&amp;tr=udp%3A%2F%2Ftracker.openbittorrent.com%3A80&amp;tr=udp%3A%2F%2Fopen.demonii.com%3A1337&amp;tr=udp%3A%2F%2Ftracker.coppersurfer.tk%3A6969&amp;tr=udp%3A%2F%2Fexodus.desync.com%3A6969","seeders":2,"leechers":0,"uploader":"miguel1983","files":-1,"time":1304010372,"description":" &lt;a href=&quot;http://img861.imageshack.us/img861/8205/earthstoodstillposter.jpg&quot; rel=&quot;nofollow&quot; target=&quot;_NEW&quot;&gt;http://img861.imageshack.us/img861/8205/earthstoodstillposter.jpg&lt;/a&gt;\n\nCountry.......: USA, Canada\nGenre.........: Sci-Fi, Thriller, Drama\nDate release..: 10.12.2008 [World]\nDirector......: Scott Derrickson\nWriters.......: David Scarpa, Edmund H. North\nDuration......: 96 min.\nMore..........: http://www.imdb.com/title/tt0970416\nTrailer.......: http://www.imdb.com/video/imdb/vi1665335321\nTrailer.......:\n\nPilot :\nA remake of the 1951 classic sci-fi film about an alien visitor and his giant robot counterpart who visit Earth.\n\nCats :\nKeanu Reeves   \t ...  \tKlaatu\nJennifer Connelly \t... \tHelen Benson\nKathy Bates \t... \tRegina Jackson\nJaden Smith \t... \tJacob Benson\nJohn Cleese \t... \tProfessor Barnhardt\nJon Hamm \t... \tMichael Granier\nKyle Chandler \t... \tJohn Driscoll\nRobert Knepper \t... \tColonel\nJames Hong \t... \tMr. Wu\nJohn Rothman \t... \tDr. Myron\nSunita Prasad \t... \tRouhani\nJuan Riedinger \t... \tWilliam Kwan\nSam Gilroy \t... \tTom\nTanya Champoux \t... \tIsabel\nRukiya Bernard \t... \tStudent \n\nData Technical :\n!!! SAMPLE !!!\nAudio.....: Lector Polish\nSubtitles.: None\nFormat                           : AVI\nFormat/Info                      : Audio Video Interleave\nFile size                        : 1.27 GiB\nDuration                         : 1h 36mn\nOverall bit rate                 : 1 894 Kbps\nWriting application              : VirtualDubMod 1.5.4.1 (build 2178/release)\nWriting library                  : VirtualDubMod build 2178/release\nVideo\nID                               : 0\nFormat                           : MPEG-4 Visual\nFormat profile                   : Advanced Simple@L5\nFormat settings, BVOP            : Yes\nFormat settings, QPel            : No\nFormat settings, GMC             : No warppoints\nFormat settings, Matrix          : Custom\nCodec ID                         : XVID\nCodec ID/Hint                    : XviD\nDuration                         : 1h 36mn\nBit rate                         : 1 501 Kbps\nWidth                            : 720 pixels\nHeight                           : 304 pixels\nDisplay aspect ratio             : 2.35:1\nFrame rate                       : 25.000 fps\nColor space                      : YUV\nChroma subsampling               : 4:2:0\nBit depth                        : 8 bits\nScan type                        : Progressive\nBits/(Pixel*Frame)               : 0.274\nStream size                      : 1.01 GiB (79%)\nWriting library                  : XviD 1.2.1 (UTC 2008-12-04)\nAudio\nID                               : 1\nFormat                           : AC-3\nFormat/Info                      : Audio Coding 3\nMode extension                   : CM (complete main)\nCodec ID                         : 2000\nDuration                         : 1h 36mn\nBit rate mode                    : Constant\nBit rate                         : 384 Kbps\nChannel(s)                       : 6 channels\nChannel positions                : Front: L C R, Side: L R, LFE\nSampling rate                    : 48.0 KHz\nBit depth                        : 16 bits\nStream size                      : 265 MiB (20%)\nAlignment                        : Split accross interleaves\nInterleave, duration             : 40 ms (1.00 video frame)\nInterleave, preload duration     : 500 ms\n\nScreen : &lt;a href=&quot;\nhttp://img820.imageshack.us/img820/3281/thedaytheearthstoodstily.jpg&quot; rel=&quot;nofollow&quot; target=&quot;_NEW&quot;&gt;\nhttp://img820.imageshack.us/img820/3281/thedaytheearthstoodstily.jpg&lt;/a&gt; &lt;a href=&quot;\nhttp://img696.imageshack.us/img696/234/thedaytheearthstoodstil.jpg&quot; rel=&quot;nofollow&quot; target=&quot;_NEW&quot;&gt;\nhttp://img696.imageshack.us/img696/234/thedaytheearthstoodstil.jpg&lt;/a&gt; &lt;a href=&quot;\nhttp://img146.imageshack.us/img146/234/thedaytheearthstoodstil.jpg&quot; rel=&quot;nofollow&quot; target=&quot;_NEW&quot;&gt;\nhttp://img146.imageshack.us/img146/234/thedaytheearthstoodstil.jpg&lt;/a&gt; &lt;a href=&quot;\nhttp://img580.imageshack.us/img580/234/thedaytheearthstoodstil.jpg&quot; rel=&quot;nofollow&quot; target=&quot;_NEW&quot;&gt;\nhttp://img580.imageshack.us/img580/234/thedaytheearthstoodstil.jpg&lt;/a&gt; &lt;a href=&quot;\nhttp://img810.imageshack.us/img810/4700/thedaytheearthstoodstilz.jpg&quot; rel=&quot;nofollow&quot; target=&quot;_NEW&quot;&gt;\nhttp://img810.imageshack.us/img810/4700/thedaytheearthstoodstilz.jpg&lt;/a&gt;","torrent":{"xt":"urn:btih:0b19410335500bcf6e83d9fc21d69f844d98cced","amp;dn":"The+Day+The+Earth+Stood+Still+%2A2008%2A+%5BDVDRip.XviD-miguel%5D+%5BLekto","amp;tr":["udp%3A%2F%2Ftracker.openbittorrent.com%3A80","udp%3A%2F%2Fopen.demonii.com%3A1337","udp%3A%2F%2Ftracker.coppersurfer.tk%3A6969","udp%3A%2F%2Fexodus.desync.com%3A6969"],"infoHash":"0b19410335500bcf6e83d9fc21d69f844d98cced","infoHashBuffer":{"type":"Buffer","data":[11,25,65,3,53,80,11,207,110,131,217,252,33,214,159,132,77,152,204,237]},"announce":[],"urlList":[]}}